<svg width="1188" height="1179" viewBox="0 0 1188 1179" fill="none" xmlns="http://www.w3.org/2000/svg">
<path d="M321.627 1110.55C237.342 1022.53 240.364 882.859 328.376 798.575L814.396 333.139C902.408 248.855 1042.08 251.877 1126.36 339.888C1210.65 427.9 1207.63 567.573 1119.62 651.857L633.596 1117.29C545.585 1201.58 405.911 1198.56 321.627 1110.55Z" fill="#8E2373" fill-opacity="0.2"/>
<mask id="mask0_239_2013" style="mask-type:luminance" maskUnits="userSpaceOnUse" x="0" y="0" width="1188" height="1179">
<path d="M321.627 1110.55L61.2881 838.693C-22.9959 750.681 -19.9739 611.008 68.0371 526.724L554.057 61.2881C642.069 -22.9959 781.742 -19.9739 866.026 68.0371L1126.37 339.889C1210.65 427.901 1207.63 567.574 1119.62 651.858L633.596 1117.29C545.585 1201.58 405.911 1198.56 321.627 1110.55Z" fill="white"/>
</mask>
<g mask="url(#mask0_239_2013)">
<path d="M674.733 515.74C674.733 515.74 642.534 481.636 686.534 482.636C730.534 483.636 857.534 487.636 843.534 513.636C829.534 539.636 760.933 580.844 674.733 515.74Z" fill="#60341B" stroke="black" stroke-width="3" stroke-miterlimit="10"/>
</g>
<mask id="mask1_239_2013" style="mask-type:luminance" maskUnits="userSpaceOnUse" x="0" y="0" width="1188" height="1179">
<path d="M321.627 1110.55L61.2881 838.693C-22.9959 750.681 -19.9739 611.008 68.0371 526.724L554.057 61.2881C642.069 -22.9959 781.742 -19.9739 866.026 68.0371L1126.37 339.889C1210.65 427.901 1207.63 567.574 1119.62 651.858L633.596 1117.29C545.585 1201.58 405.911 1198.56 321.627 1110.55Z" fill="white"/>
</mask>
<g mask="url(#mask1_239_2013)">
<path d="M678.533 470.636C678.533 470.636 681.79 478.279 684.705 490.201C689.702 510.64 693.692 543.657 678.533 572.295L822.533 572.637C822.533 572.637 794.533 541.637 822.533 470.637C822.533 470.637 764.533 562.636 678.533 470.636Z" fill="#EBEBEB" stroke="black" stroke-width="2" stroke-miterlimit="10"/>
</g>
<mask id="mask2_239_2013" style="mask-type:luminance" maskUnits="userSpaceOnUse" x="0" y="0" width="1188" height="1179">
<path d="M321.627 1110.55L61.2881 838.693C-22.9959 750.681 -19.9739 611.008 68.0371 526.724L554.057 61.2881C642.069 -22.9959 781.742 -19.9739 866.026 68.0371L1126.37 339.889C1210.65 427.901 1207.63 567.574 1119.62 651.858L633.596 1117.29C545.585 1201.58 405.911 1198.56 321.627 1110.55Z" fill="white"/>
</mask>
<g mask="url(#mask2_239_2013)">
<path d="M634.533 335.636C634.533 335.636 622.533 351.636 630.533 374.636C638.533 397.636 635.533 406.636 639.533 409.636C643.533 412.636 646.825 409.636 646.825 409.636C646.825 409.636 664.033 475.136 690.533 495.636C715.167 514.693 724.533 528.636 755.533 530.636C786.533 532.636 831.533 478.636 838.533 456.636C845.533 434.636 853.533 402.636 853.533 402.636C853.533 402.636 854.533 407.636 863.533 404.636C872.533 401.636 878.533 392.636 880.533 384.636C882.533 376.636 880.533 319.582 880.533 319.582C880.533 319.582 862.533 298.636 859.533 310.636C856.533 322.636 870.087 240.614 834.31 221.625C798.533 202.636 750.533 182.636 710.533 207.636C670.533 232.636 634.533 273.636 634.533 288.636C634.533 303.636 634.533 335.636 634.533 335.636Z" fill="#EBEBEB" stroke="black" stroke-width="2" stroke-miterlimit="10"/>
</g>
<mask id="mask3_239_2013" style="mask-type:luminance" maskUnits="userSpaceOnUse" x="0" y="0" width="1188" height="1179">
<path d="M321.627 1110.55L61.2881 838.693C-22.9959 750.681 -19.9739 611.008 68.0371 526.724L554.057 61.2881C642.069 -22.9959 781.742 -19.9739 866.026 68.0371L1126.37 339.889C1210.65 427.901 1207.63 567.574 1119.62 651.858L633.596 1117.29C545.585 1201.58 405.911 1198.56 321.627 1110.55Z" fill="white"/>
</mask>
<g mask="url(#mask3_239_2013)">
<path d="M630.035 340.136C630.035 340.136 616.035 298.037 630.035 245.087C644.035 192.137 690.035 181.136 699.035 168.136C708.035 155.136 706.035 151.136 706.035 139.136C706.035 127.136 717.035 94.136 762.035 95.136C807.035 96.136 813.035 129.136 813.035 136.136C813.035 143.136 810.035 155.384 813.035 157.76C816.035 160.136 820.035 160.136 818.035 171.136C816.035 182.136 818.035 184.136 828.035 187.136C838.035 190.136 857.035 206.136 863.035 229.136C869.035 252.136 879.035 294.591 863.035 321.364V348.136H858.193C858.193 348.136 857.535 326.636 856.535 322.636C855.535 318.636 829.535 303.636 830.535 293.636C831.535 283.636 847.535 268.636 842.535 261.636C837.535 254.636 826.535 226.636 797.535 231.636C768.535 236.636 762.535 253.953 746.535 248.294C730.535 242.636 710.535 216.636 696.535 231.636C682.535 246.636 657.535 246.636 655.535 276.636C653.535 306.636 643.535 304.636 641.535 314.636C639.535 324.636 640.535 341.636 640.535 341.636L633.535 342.636C633.535 342.636 631.535 334.636 630.035 340.136Z" fill="#302317" stroke="black" stroke-width="3" stroke-miterlimit="10"/>
</g>
<mask id="mask4_239_2013" style="mask-type:luminance" maskUnits="userSpaceOnUse" x="0" y="0" width="1188" height="1179">
<path d="M321.627 1110.55L61.2881 838.693C-22.9959 750.681 -19.9739 611.008 68.0371 526.724L554.057 61.2881C642.069 -22.9959 781.742 -19.9739 866.026 68.0371L1126.37 339.889C1210.65 427.901 1207.63 567.574 1119.62 651.858L633.596 1117.29C545.585 1201.58 405.911 1198.56 321.627 1110.55Z" fill="white"/>
</mask>
<g mask="url(#mask4_239_2013)">
<path d="M729.533 141.636C735.088 137.525 741.507 134.588 748.233 132.669C754.96 130.771 762.155 129.969 769.245 130.994C772.774 131.514 776.283 132.383 779.574 133.809C782.84 135.268 785.984 137.016 788.757 139.242C794.318 143.668 798.622 149.402 801.533 155.637C797.204 150.278 792.433 145.437 786.929 141.772C784.143 139.996 781.235 138.467 778.172 137.327C777.395 137.074 776.629 136.795 775.859 136.526C775.077 136.294 774.283 136.1 773.497 135.883C772.719 135.638 771.904 135.529 771.107 135.353L769.906 135.114L768.689 134.954C762.207 134.021 755.519 134.438 748.95 135.695C742.377 136.976 735.879 138.982 729.533 141.636Z" fill="black"/>
</g>
<mask id="mask5_239_2013" style="mask-type:luminance" maskUnits="userSpaceOnUse" x="0" y="0" width="1188" height="1179">
<path d="M321.627 1110.55L61.2881 838.693C-22.9959 750.681 -19.9739 611.008 68.0371 526.724L554.057 61.2881C642.069 -22.9959 781.742 -19.9739 866.026 68.0371L1126.37 339.889C1210.65 427.901 1207.63 567.574 1119.62 651.858L633.596 1117.29C545.585 1201.58 405.911 1198.56 321.627 1110.55Z" fill="white"/>
</mask>
<g mask="url(#mask5_239_2013)">
<path d="M718.533 167.636C720.155 164.057 722.423 160.769 725.114 157.806C727.843 154.899 731.131 152.292 735.127 150.865C737.108 150.143 739.253 149.737 741.412 149.778C743.57 149.8 745.716 150.225 747.735 150.937C749.736 151.692 751.579 152.748 753.293 153.933L755.673 155.53C756.456 156.065 757.242 156.594 758.071 157.057C764.504 161.087 771.537 164.134 778.834 166.452C782.487 167.604 786.219 168.552 790.005 169.3C793.79 170.087 797.628 170.621 801.533 170.949C797.645 171.512 793.682 171.5 789.745 171.247C785.81 170.946 781.874 170.396 778.016 169.465C774.144 168.585 770.354 167.34 766.643 165.88C765.709 165.528 764.818 165.076 763.904 164.676L762.541 164.057L761.209 163.372L758.552 161.986L755.97 160.458C755.106 159.954 754.283 159.384 753.466 158.807L751.019 157.107C749.551 156.041 747.985 155.171 746.372 154.459C744.743 153.799 743.038 153.376 741.301 153.273C739.566 153.177 737.804 153.361 736.076 153.828C732.623 154.79 729.361 156.779 726.463 159.222C723.532 161.655 720.903 164.524 718.533 167.636Z" fill="black"/>
</g>
<mask id="mask6_239_2013" style="mask-type:luminance" maskUnits="userSpaceOnUse" x="0" y="0" width="1188" height="1179">
<path d="M321.627 1110.55L61.2881 838.693C-22.9959 750.681 -19.9739 611.008 68.0371 526.724L554.057 61.2881C642.069 -22.9959 781.742 -19.9739 866.026 68.0371L1126.37 339.889C1210.65 427.901 1207.63 567.574 1119.62 651.858L633.596 1117.29C545.585 1201.58 405.911 1198.56 321.627 1110.55Z" fill="white"/>
</mask>
<g mask="url(#mask6_239_2013)">
<path d="M1048.83 678.136C1041.41 629.136 1012.66 632.136 998.753 622.136C984.843 612.136 873.728 566.136 857.035 556.136C840.342 546.136 845.035 505.136 845.035 505.136C827.863 528.821 803.599 537.664 781.535 540.063V539.503C781.535 539.503 707.535 547.637 664.535 492.637C664.535 492.637 667.535 543.637 649.535 553.637C631.535 563.637 503.535 605.637 488.535 615.637C473.535 625.637 442.535 622.637 434.535 671.637C426.535 720.637 437.535 946.637 437.535 946.637C437.535 946.637 445.535 986.637 445.535 1019.64C445.535 1052.64 437.535 1115.64 485.535 1144.64C485.535 1144.64 512.535 1166.64 523.535 1158.64C534.535 1150.64 537.535 1151.64 537.535 1151.64L538.535 1204.64H727.035V1211.14H952.385L953.312 1158.14C953.312 1158.14 956.094 1157.14 966.295 1165.14C976.496 1173.14 1001.53 1151.14 1001.53 1151.14C1046.05 1122.14 1038.63 1059.14 1038.63 1026.14C1038.63 993.137 1046.05 953.137 1046.05 953.137C1046.05 953.137 1056.25 727.136 1048.83 678.136Z" fill="#8E2373" stroke="black" stroke-width="3" stroke-miterlimit="10" stroke-linecap="round" stroke-linejoin="round"/>
</g>
<mask id="mask7_239_2013" style="mask-type:luminance" maskUnits="userSpaceOnUse" x="0" y="0" width="1188" height="1179">
<path d="M321.627 1110.55L61.2881 838.693C-22.9959 750.681 -19.9739 611.008 68.0371 526.724L554.057 61.2881C642.069 -22.9959 781.742 -19.9739 866.026 68.0371L1126.37 339.889C1210.65 427.901 1207.63 567.574 1119.62 651.858L633.596 1117.29C545.585 1201.58 405.911 1198.56 321.627 1110.55Z" fill="white"/>
</mask>
<g mask="url(#mask7_239_2013)">
<path d="M641.535 226.636C642.456 228.318 642.567 230.431 642.092 232.362C641.607 234.318 640.522 236.041 639.324 237.639C638.662 238.37 637.985 239.107 637.27 239.793C636.519 240.424 635.771 241.076 635.001 241.695C634.202 242.257 633.385 242.799 632.566 243.343C631.75 243.892 630.875 244.306 630.029 244.795C628.344 245.803 626.548 246.508 624.778 247.308C622.992 248.052 621.169 248.664 619.361 249.347L616.849 250.287C616.043 250.64 615.26 251.034 614.471 251.413C612.972 252.294 611.504 253.231 610.269 254.424C608.948 255.526 607.891 256.891 606.903 258.294C605.989 259.754 605.206 261.306 604.612 262.96C603.365 266.25 602.877 269.861 602.701 273.501C602.573 277.152 602.817 280.864 603.334 284.56C603.831 288.265 604.586 291.955 605.535 295.635C603.751 292.264 602.466 288.647 601.41 284.955C600.918 283.099 600.504 281.216 600.171 279.309C599.866 277.397 599.652 275.463 599.58 273.507C599.528 272.531 599.541 271.547 599.549 270.562C599.605 269.577 599.647 268.59 599.788 267.604C599.998 265.629 600.433 263.66 601.031 261.727C601.632 259.789 602.556 257.946 603.614 256.183C604.759 254.479 606.022 252.811 607.589 251.458C609.109 250.051 610.862 248.959 612.639 247.966C613.556 247.536 614.474 247.098 615.404 246.711C616.342 246.382 617.318 246.029 618.232 245.743C619.989 245.173 621.783 244.671 623.52 244.046L626.104 243.061C626.986 242.768 627.817 242.389 628.65 242.007C632.006 240.538 635.26 238.771 637.889 236.311C639.158 235.058 640.314 233.662 641.046 232.013C641.191 231.594 641.364 231.173 641.495 230.74C641.569 230.3 641.715 229.855 641.736 229.4C641.858 228.492 641.785 227.551 641.535 226.636Z" fill="black"/>
</g>
<mask id="mask8_239_2013" style="mask-type:luminance" maskUnits="userSpaceOnUse" x="0" y="0" width="1188" height="1179">
<path d="M321.627 1110.55L61.2881 838.693C-22.9959 750.681 -19.9739 611.008 68.0371 526.724L554.057 61.2881C642.069 -22.9959 781.742 -19.9739 866.026 68.0371L1126.37 339.889C1210.65 427.901 1207.63 567.574 1119.62 651.858L633.596 1117.29C545.585 1201.58 405.911 1198.56 321.627 1110.55Z" fill="white"/>
</mask>
<g mask="url(#mask8_239_2013)">
<path d="M653.87 201.261C654.823 202.925 654.974 205.036 654.536 206.976C654.088 208.941 653.037 210.685 651.869 212.304C651.221 213.047 650.558 213.797 649.857 214.497C649.118 215.143 648.383 215.808 647.625 216.442C646.836 217.019 646.03 217.576 645.222 218.136C644.416 218.701 643.55 219.131 642.713 219.636C641.048 220.676 639.266 221.415 637.511 222.249C635.74 223.026 633.928 223.673 632.134 224.392L629.641 225.38C628.842 225.748 628.066 226.157 627.284 226.551C625.802 227.46 624.352 228.426 623.14 229.642C621.841 230.769 620.81 232.154 619.849 233.575C618.963 235.052 618.21 236.619 617.647 238.284C616.464 241.597 616.044 245.217 615.938 248.859C615.88 252.512 616.195 256.218 616.782 259.904C617.349 263.598 618.175 267.274 619.194 270.935C617.346 267.599 615.992 264.007 614.866 260.336C614.338 258.49 613.889 256.615 613.519 254.714C613.177 252.809 612.927 250.879 612.817 248.924C612.746 247.949 612.741 246.965 612.73 245.98C612.767 244.994 612.791 244.006 612.912 243.018C613.084 241.04 613.482 239.063 614.043 237.119C614.607 235.17 615.496 233.309 616.519 231.527C617.632 229.801 618.862 228.109 620.403 226.727C621.896 225.291 623.627 224.166 625.385 223.139C626.294 222.692 627.203 222.236 628.126 221.832C629.058 221.485 630.027 221.114 630.935 220.811C632.681 220.208 634.465 219.671 636.189 219.014L638.753 217.98C639.629 217.671 640.453 217.275 641.278 216.878C644.605 215.345 647.825 213.517 650.407 211.007C651.652 209.73 652.781 208.312 653.481 206.649C653.618 206.227 653.783 205.803 653.906 205.367C653.971 204.925 654.109 204.478 654.121 204.023C654.229 203.111 654.138 202.172 653.87 201.261Z" fill="black"/>
</g>
<mask id="mask9_239_2013" style="mask-type:luminance" maskUnits="userSpaceOnUse" x="0" y="0" width="1188" height="1179">
<path d="M321.627 1110.55L61.2881 838.693C-22.9959 750.681 -19.9739 611.008 68.0371 526.724L554.057 61.2881C642.069 -22.9959 781.742 -19.9739 866.026 68.0371L1126.37 339.889C1210.65 427.901 1207.63 567.574 1119.62 651.858L633.596 1117.29C545.585 1201.58 405.911 1198.56 321.627 1110.55Z" fill="white"/>
</mask>
<g mask="url(#mask9_239_2013)">
<path d="M693.87 234.261C694.823 235.925 694.974 238.036 694.536 239.976C694.088 241.941 693.037 243.685 691.869 245.304C691.221 246.047 690.558 246.797 689.857 247.497C689.118 248.143 688.383 248.808 687.625 249.442C686.836 250.019 686.03 250.576 685.222 251.136C684.416 251.701 683.55 252.131 682.713 252.636C681.048 253.676 679.266 254.415 677.511 255.249C675.74 256.026 673.928 256.673 672.134 257.392L669.641 258.38C668.842 258.748 668.066 259.157 667.284 259.551C665.802 260.46 664.352 261.426 663.14 262.642C661.841 263.769 660.81 265.154 659.849 266.575C658.963 268.052 658.21 269.619 657.647 271.284C656.464 274.597 656.044 278.217 655.938 281.859C655.88 285.512 656.195 289.218 656.782 292.904C657.349 296.598 658.175 300.274 659.194 303.935C657.346 300.599 655.992 297.007 654.866 293.336C654.338 291.49 653.889 289.615 653.519 287.714C653.177 285.809 652.927 283.879 652.817 281.924C652.746 280.949 652.741 279.965 652.73 278.98C652.767 277.994 652.791 277.006 652.912 276.018C653.084 274.04 653.482 272.063 654.043 270.119C654.607 268.17 655.496 266.309 656.519 264.527C657.632 262.801 658.862 261.109 660.403 259.727C661.896 258.291 663.627 257.166 665.385 256.139C666.294 255.692 667.203 255.236 668.126 254.832C669.058 254.485 670.027 254.114 670.935 253.811C672.681 253.208 674.465 252.671 676.189 252.014L678.753 250.98C679.629 250.671 680.453 250.275 681.278 249.878C684.605 248.345 687.825 246.517 690.407 244.007C691.652 242.73 692.781 241.312 693.481 239.649C693.618 239.227 693.783 238.803 693.906 238.367C693.971 237.925 694.109 237.478 694.121 237.023C694.229 236.111 694.138 235.172 693.87 234.261Z" fill="black"/>
</g>
<mask id="mask10_239_2013" style="mask-type:luminance" maskUnits="userSpaceOnUse" x="0" y="0" width="1188" height="1179">
<path d="M321.627 1110.55L61.2881 838.693C-22.9959 750.681 -19.9739 611.008 68.0371 526.724L554.057 61.2881C642.069 -22.9959 781.742 -19.9739 866.026 68.0371L1126.37 339.889C1210.65 427.901 1207.63 567.574 1119.62 651.858L633.596 1117.29C545.585 1201.58 405.911 1198.56 321.627 1110.55Z" fill="white"/>
</mask>
<g mask="url(#mask10_239_2013)">
<path d="M723.907 233.159C723.55 235.043 722.293 236.745 720.7 237.935C719.083 239.138 717.151 239.78 715.21 240.252C714.235 240.396 713.243 240.535 712.256 240.611C711.275 240.621 710.284 240.65 709.295 240.639C708.321 240.565 707.345 240.465 706.368 240.366C705.389 240.272 704.45 240.036 703.486 239.876C701.544 239.585 699.71 238.988 697.834 238.482C695.982 237.922 694.185 237.236 692.355 236.616L689.818 235.747C688.971 235.508 688.116 235.314 687.266 235.106C685.548 234.834 683.82 234.626 682.108 234.762C680.388 234.774 678.705 235.157 677.05 235.613C675.416 236.16 673.826 236.862 672.317 237.761C669.264 239.51 666.594 241.989 664.146 244.688C661.728 247.426 659.559 250.448 657.61 253.632C655.641 256.809 653.879 260.138 652.275 263.584C653.038 259.848 654.343 256.238 655.873 252.716C656.672 250.97 657.548 249.253 658.503 247.568C659.481 245.898 660.545 244.268 661.732 242.711C662.312 241.924 662.947 241.172 663.579 240.417C664.248 239.692 664.908 238.956 665.642 238.284C667.058 236.892 668.645 235.648 670.335 234.535C672.03 233.42 673.915 232.583 675.851 231.894C677.818 231.305 679.853 230.819 681.922 230.769C683.99 230.647 686.037 230.918 688.04 231.279C689.021 231.53 690.008 231.774 690.973 232.066C691.907 232.408 692.885 232.755 693.772 233.115C695.491 233.791 697.196 234.542 698.934 235.163L701.555 236.044C702.422 236.378 703.305 236.613 704.191 236.847C707.716 237.844 711.352 238.547 714.945 238.317C716.721 238.155 718.501 237.811 720.113 237.003C720.491 236.771 720.892 236.557 721.269 236.305C721.605 236.012 722.001 235.761 722.306 235.423C722.978 234.797 723.519 234.025 723.907 233.159Z" fill="black"/>
</g>
<mask id="mask11_239_2013" style="mask-type:luminance" maskUnits="userSpaceOnUse" x="0" y="0" width="1188" height="1179">
<path d="M321.627 1110.55L61.2881 838.693C-22.9959 750.681 -19.9739 611.008 68.0371 526.724L554.057 61.2881C642.069 -22.9959 781.742 -19.9739 866.026 68.0371L1126.37 339.889C1210.65 427.901 1207.63 567.574 1119.62 651.858L633.596 1117.29C545.585 1201.58 405.911 1198.56 321.627 1110.55Z" fill="white"/>
</mask>
<g mask="url(#mask11_239_2013)">
<path d="M696.149 167.562C696.768 169.376 696.515 171.478 695.717 173.299C694.904 175.143 693.54 176.655 692.086 178.024C691.309 178.631 690.515 179.241 689.694 179.795C688.846 180.288 687.998 180.802 687.133 181.281C686.249 181.697 685.351 182.092 684.452 182.488C683.554 182.889 682.621 183.147 681.704 183.484C679.872 184.189 677.982 184.575 676.101 185.061C674.214 185.488 672.313 185.778 670.415 186.143L667.779 186.639C666.925 186.849 666.085 187.103 665.243 187.341C663.615 187.952 662.009 188.624 660.587 189.588C659.097 190.448 657.822 191.611 656.608 192.824C655.457 194.106 654.42 195.501 653.552 197.028C651.76 200.056 650.661 203.53 649.864 207.086C649.113 210.661 648.717 214.36 648.593 218.09C648.448 221.825 648.56 225.59 648.864 229.378C647.684 225.752 647.037 221.968 646.629 218.15C646.462 216.237 646.377 214.311 646.375 212.375C646.402 210.439 646.522 208.497 646.786 206.557C646.902 205.586 647.084 204.619 647.26 203.65C647.484 202.689 647.695 201.724 648.002 200.777C648.547 198.867 649.313 197.002 650.233 195.2C651.157 193.394 652.383 191.736 653.727 190.181C655.147 188.698 656.677 187.271 658.452 186.207C660.19 185.081 662.104 184.305 664.025 183.631C665.002 183.365 665.981 183.09 666.965 182.868C667.946 182.704 668.968 182.524 669.917 182.399C671.746 182.139 673.599 181.951 675.417 181.633L678.131 181.105C679.05 180.968 679.934 180.736 680.82 180.503C684.378 179.631 687.887 178.447 690.898 176.474C692.363 175.457 693.741 174.279 694.744 172.78C694.958 172.392 695.201 172.007 695.405 171.602C695.553 171.181 695.773 170.768 695.872 170.323C696.15 169.445 696.239 168.506 696.149 167.562Z" fill="black"/>
</g>
<mask id="mask12_239_2013" style="mask-type:luminance" maskUnits="userSpaceOnUse" x="0" y="0" width="1188" height="1179">
<path d="M321.627 1110.55L61.2881 838.693C-22.9959 750.681 -19.9739 611.008 68.0371 526.724L554.057 61.2881C642.069 -22.9959 781.742 -19.9739 866.026 68.0371L1126.37 339.889C1210.65 427.901 1207.63 567.574 1119.62 651.858L633.596 1117.29C545.585 1201.58 405.911 1198.56 321.627 1110.55Z" fill="white"/>
</mask>
<g mask="url(#mask12_239_2013)">
<path d="M889.383 258.104C887.474 258.284 885.49 257.55 883.904 256.349C882.299 255.129 881.146 253.452 880.153 251.719C879.744 250.822 879.335 249.908 878.987 248.981C878.704 248.041 878.402 247.097 878.138 246.145C877.939 245.189 877.764 244.224 877.588 243.257C877.407 242.29 877.372 241.323 877.258 240.352C876.999 238.406 877.062 236.478 877.027 234.535C877.051 232.601 877.21 230.684 877.298 228.753L877.428 226.074C877.423 225.194 877.371 224.319 877.335 223.444C877.119 221.718 876.839 220 876.233 218.393C875.743 216.744 874.908 215.233 874.011 213.771C873.032 212.354 871.916 211.02 870.633 209.82C868.105 207.373 864.982 205.496 861.709 203.894C858.407 202.332 854.901 201.087 851.302 200.099C847.703 199.089 844.015 198.322 840.26 197.738C844.061 197.434 847.892 197.685 851.7 198.176C853.599 198.458 855.492 198.823 857.376 199.272C859.252 199.748 861.113 200.317 862.939 201.025C863.856 201.363 864.755 201.765 865.656 202.162C866.539 202.604 867.428 203.033 868.278 203.552C870.009 204.526 871.645 205.705 873.183 207.019C874.725 208.338 876.052 209.916 877.252 211.584C878.364 213.31 879.396 215.13 880.019 217.104C880.71 219.057 881.019 221.099 881.228 223.123C881.259 224.135 881.299 225.151 881.286 226.159C881.217 227.151 881.155 228.187 881.056 229.139C880.884 230.978 880.636 232.825 880.522 234.667L880.404 237.429C880.324 238.354 880.343 239.268 880.365 240.184C880.386 243.847 880.721 247.535 881.94 250.923C882.589 252.584 883.414 254.198 884.638 255.523C884.966 255.822 885.283 256.148 885.63 256.439C886.005 256.681 886.355 256.991 886.765 257.19C887.55 257.667 888.443 257.972 889.383 258.104Z" fill="black"/>
</g>
<mask id="mask13_239_2013" style="mask-type:luminance" maskUnits="userSpaceOnUse" x="0" y="0" width="1188" height="1179">
<path d="M321.627 1110.55L61.2881 838.693C-22.9959 750.681 -19.9739 611.008 68.0371 526.724L554.057 61.2881C642.069 -22.9959 781.742 -19.9739 866.026 68.0371L1126.37 339.889C1210.65 427.901 1207.63 567.574 1119.62 651.858L633.596 1117.29C545.585 1201.58 405.911 1198.56 321.627 1110.55Z" fill="white"/>
</mask>
<g mask="url(#mask13_239_2013)">
<path d="M842.383 291.104C840.474 291.284 838.49 290.55 836.904 289.349C835.299 288.129 834.146 286.452 833.153 284.719C832.744 283.822 832.335 282.908 831.987 281.981C831.704 281.041 831.402 280.097 831.138 279.145C830.939 278.189 830.764 277.224 830.588 276.257C830.407 275.29 830.372 274.323 830.258 273.352C829.999 271.406 830.062 269.478 830.027 267.535C830.051 265.601 830.21 263.684 830.298 261.753L830.428 259.074C830.423 258.194 830.371 257.319 830.335 256.444C830.119 254.718 829.839 253 829.233 251.393C828.743 249.744 827.908 248.233 827.011 246.771C826.032 245.354 824.916 244.02 823.633 242.82C821.105 240.373 817.982 238.496 814.709 236.894C811.407 235.332 807.901 234.087 804.302 233.099C800.703 232.089 797.015 231.322 793.26 230.738C797.061 230.434 800.892 230.685 804.7 231.176C806.599 231.458 808.492 231.823 810.376 232.272C812.252 232.748 814.113 233.317 815.939 234.025C816.856 234.363 817.755 234.765 818.656 235.162C819.539 235.604 820.428 236.033 821.278 236.552C823.009 237.526 824.645 238.705 826.183 240.019C827.725 241.338 829.052 242.916 830.252 244.584C831.364 246.31 832.396 248.13 833.019 250.104C833.71 252.057 834.019 254.099 834.228 256.123C834.259 257.135 834.299 258.151 834.286 259.159C834.217 260.151 834.155 261.187 834.056 262.139C833.884 263.978 833.636 265.825 833.522 267.667L833.404 270.429C833.324 271.354 833.343 272.268 833.365 273.184C833.386 276.847 833.721 280.535 834.94 283.923C835.589 285.584 836.414 287.198 837.638 288.523C837.966 288.822 838.283 289.148 838.63 289.439C839.005 289.681 839.355 289.991 839.765 290.19C840.55 290.667 841.443 290.972 842.383 291.104Z" fill="black"/>
</g>
<mask id="mask14_239_2013" style="mask-type:luminance" maskUnits="userSpaceOnUse" x="0" y="0" width="1188" height="1179">
<path d="M321.627 1110.55L61.2881 838.693C-22.9959 750.681 -19.9739 611.008 68.0371 526.724L554.057 61.2881C642.069 -22.9959 781.742 -19.9739 866.026 68.0371L1126.37 339.889C1210.65 427.901 1207.63 567.574 1119.62 651.858L633.596 1117.29C545.585 1201.58 405.911 1198.56 321.627 1110.55Z" fill="white"/>
</mask>
<g mask="url(#mask14_239_2013)">
<path d="M810.318 291.572C808.553 290.823 807.156 289.233 806.332 287.423C805.5 285.587 805.284 283.563 805.235 281.566C805.302 280.582 805.378 279.584 805.513 278.603C805.711 277.642 805.894 276.668 806.115 275.704C806.394 274.768 806.699 273.836 807.003 272.902C807.303 271.965 807.733 271.098 808.094 270.19C808.791 268.355 809.764 266.689 810.657 264.964C811.598 263.274 812.651 261.663 813.646 260.006L815.034 257.712C815.448 256.936 815.819 256.141 816.203 255.355C816.834 253.734 817.405 252.089 817.635 250.388C817.989 248.704 817.972 246.979 817.878 245.265C817.691 243.552 817.343 241.849 816.785 240.183C815.724 236.828 813.871 233.692 811.753 230.726C809.591 227.781 807.098 225.019 804.402 222.438C801.716 219.838 798.838 217.41 795.812 215.11C799.302 216.65 802.551 218.693 805.667 220.935C807.204 222.087 808.695 223.308 810.139 224.599C811.563 225.91 812.93 227.296 814.199 228.786C814.845 229.52 815.444 230.301 816.048 231.078C816.614 231.886 817.193 232.687 817.694 233.547C818.753 235.227 819.632 237.042 820.36 238.93C821.089 240.824 821.506 242.843 821.768 244.881C821.925 246.928 821.969 249.02 821.578 251.052C821.257 253.098 820.558 255.042 819.779 256.922C819.325 257.828 818.876 258.74 818.385 259.621C817.853 260.461 817.306 261.343 816.766 262.133C815.74 263.669 814.643 265.175 813.667 266.742L812.25 269.116C811.74 269.892 811.321 270.705 810.904 271.521C809.18 274.754 807.721 278.157 807.183 281.717C806.964 283.487 806.923 285.299 807.37 287.047C807.516 287.466 807.64 287.903 807.806 288.325C808.021 288.716 808.183 289.156 808.448 289.526C808.914 290.316 809.554 291.009 810.318 291.572Z" fill="black"/>
</g>
<mask id="mask15_239_2013" style="mask-type:luminance" maskUnits="userSpaceOnUse" x="0" y="0" width="1188" height="1179">
<path d="M321.627 1110.55L61.2881 838.693C-22.9959 750.681 -19.9739 611.008 68.0371 526.724L554.057 61.2881C642.069 -22.9959 781.742 -19.9739 866.026 68.0371L1126.37 339.889C1210.65 427.901 1207.63 567.574 1119.62 651.858L633.596 1117.29C545.585 1201.58 405.911 1198.56 321.627 1110.55Z" fill="white"/>
</mask>
<g mask="url(#mask15_239_2013)">
<path d="M865.006 235.972C863.119 236.314 861.08 235.75 859.398 234.688C857.696 233.609 856.404 232.035 855.268 230.392C854.784 229.533 854.299 228.657 853.874 227.762C853.513 226.85 853.132 225.934 852.787 225.008C852.507 224.072 852.251 223.125 851.994 222.177C851.731 221.229 851.615 220.268 851.419 219.311C850.996 217.394 850.896 215.467 850.696 213.535C850.556 211.606 850.552 209.682 850.475 207.751L850.378 205.071C850.298 204.195 850.172 203.327 850.063 202.459C849.702 200.758 849.277 199.069 848.536 197.52C847.908 195.918 846.948 194.484 845.93 193.103C844.834 191.774 843.609 190.54 842.229 189.453C839.502 187.229 836.232 185.623 832.834 184.305C829.411 183.028 825.813 182.085 822.143 181.406C818.472 180.705 814.732 180.253 810.941 179.989C814.703 179.363 818.541 179.289 822.377 179.456C824.294 179.576 826.211 179.78 828.125 180.067C830.035 180.382 831.938 180.792 833.816 181.342C834.759 181.601 835.688 181.926 836.619 182.244C837.536 182.609 838.458 182.961 839.349 183.406C841.156 184.23 842.886 185.266 844.53 186.445C846.178 187.629 847.634 189.088 848.971 190.649C850.225 192.275 851.408 194 852.196 195.914C853.05 197.801 853.531 199.809 853.911 201.809C854.028 202.815 854.154 203.824 854.226 204.829C854.241 205.823 854.267 206.861 854.249 207.818C854.233 209.665 854.143 211.526 854.185 213.371L854.302 216.133C854.301 217.062 854.397 217.971 854.496 218.881C854.827 222.529 855.474 226.176 856.976 229.448C857.763 231.048 858.722 232.586 860.054 233.803C860.406 234.073 860.75 234.371 861.12 234.632C861.514 234.841 861.89 235.121 862.315 235.284C863.143 235.692 864.058 235.92 865.006 235.972Z" fill="black"/>
</g>
<mask id="mask16_239_2013" style="mask-type:luminance" maskUnits="userSpaceOnUse" x="0" y="0" width="1188" height="1179">
<path d="M321.627 1110.55L61.2881 838.693C-22.9959 750.681 -19.9739 611.008 68.0371 526.724L554.057 61.2881C642.069 -22.9959 781.742 -19.9739 866.026 68.0371L1126.37 339.889C1210.65 427.901 1207.63 567.574 1119.62 651.858L633.596 1117.29C545.585 1201.58 405.911 1198.56 321.627 1110.55Z" fill="white"/>
</mask>
<g mask="url(#mask16_239_2013)">
<path d="M985.033 833.636H973.842L973.425 824.636H981.197L981.164 818.636H972.922L972.458 801.636H926.027H914.539H868.108L867.644 818.636H859.402L859.369 824.636H867.141L866.724 833.636H855.533L855.691 843.636H866.173L865.805 848.636H871.977L894.033 923.136L914.539 922.636H926.027L950.033 923.136L968.589 848.636H974.761L974.393 843.636H984.875L985.033 833.636Z" fill="white" stroke="black" stroke-width="2" stroke-miterlimit="10"/>
</g>
<mask id="mask17_239_2013" style="mask-type:luminance" maskUnits="userSpaceOnUse" x="0" y="0" width="1188" height="1179">
<path d="M321.627 1110.55L61.2881 838.693C-22.9959 750.681 -19.9739 611.008 68.0371 526.724L554.057 61.2881C642.069 -22.9959 781.742 -19.9739 866.026 68.0371L1126.37 339.889C1210.65 427.901 1207.63 567.574 1119.62 651.858L633.596 1117.29C545.585 1201.58 405.911 1198.56 321.627 1110.55Z" fill="white"/>
</mask>
<g mask="url(#mask17_239_2013)">
<path d="M636.619 779.579L628.533 700.636C628.533 700.636 628.998 694.162 640.766 692.899C652.534 691.636 736.533 688.636 740.533 694.636C744.533 700.636 748.533 810.636 748.533 810.636L639.533 827.636L636.619 779.579Z" fill="#444444"/>
</g>
<mask id="mask18_239_2013" style="mask-type:luminance" maskUnits="userSpaceOnUse" x="0" y="0" width="1188" height="1179">
<path d="M321.627 1110.55L61.2881 838.693C-22.9959 750.681 -19.9739 611.008 68.0371 526.724L554.057 61.2881C642.069 -22.9959 781.742 -19.9739 866.026 68.0371L1126.37 339.889C1210.65 427.901 1207.63 567.574 1119.62 651.858L633.596 1117.29C545.585 1201.58 405.911 1198.56 321.627 1110.55Z" fill="white"/>
</mask>
<g mask="url(#mask18_239_2013)">
<path d="M641.211 706.636H654.581C656.021 706.636 657.204 707.775 657.257 709.215L657.429 713.859C657.485 715.376 656.271 716.637 654.753 716.637H641.211C639.732 716.637 638.533 715.438 638.533 713.959V709.315C638.533 707.835 639.732 706.636 641.211 706.636Z" fill="black"/>
</g>
<mask id="mask19_239_2013" style="mask-type:luminance" maskUnits="userSpaceOnUse" x="0" y="0" width="1188" height="1179">
<path d="M321.627 1110.55L61.2881 838.693C-22.9959 750.681 -19.9739 611.008 68.0371 526.724L554.057 61.2881C642.069 -22.9959 781.742 -19.9739 866.026 68.0371L1126.37 339.889C1210.65 427.901 1207.63 567.574 1119.62 651.858L633.596 1117.29C545.585 1201.58 405.911 1198.56 321.627 1110.55Z" fill="white"/>
</mask>
<g mask="url(#mask19_239_2013)">
<path d="M569.533 877.714C569.533 877.714 576.033 881.136 591.033 883.136C613.636 886.15 678.56 903.136 657.797 923.136C637.034 943.136 628.033 951.136 601.033 944.136C574.033 937.136 563.033 893.292 569.533 877.714Z" fill="#60341B"/>
</g>
<mask id="mask20_239_2013" style="mask-type:luminance" maskUnits="userSpaceOnUse" x="0" y="0" width="1188" height="1179">
<path d="M321.627 1110.55L61.2881 838.693C-22.9959 750.681 -19.9739 611.008 68.0371 526.724L554.057 61.2881C642.069 -22.9959 781.742 -19.9739 866.026 68.0371L1126.37 339.889C1210.65 427.901 1207.63 567.574 1119.62 651.858L633.596 1117.29C545.585 1201.58 405.911 1198.56 321.627 1110.55Z" fill="white"/>
</mask>
<g mask="url(#mask20_239_2013)">
<path d="M569.533 894.636C569.533 894.636 592.533 815.636 597.533 805.636C602.533 795.636 612.533 790.636 616.533 788.636C620.533 786.636 675.533 761.636 689.533 759.636C703.533 757.636 703.533 772.636 691.533 779.636C679.533 786.636 642.533 805.636 642.533 809.636C642.533 813.636 643.533 822.636 669.533 813.636C695.533 804.636 743.533 799.636 756.533 800.636C769.533 801.636 777.533 809.636 770.533 817.636C763.533 825.636 742.533 827.636 733.533 831.636C724.533 835.636 655.617 848.636 655.617 848.636C655.617 848.636 746.533 828.636 759.533 829.636C772.533 830.636 786.533 839.636 776.533 844.636C766.533 849.636 717.533 859.636 705.533 871.636C693.533 883.636 663.033 913.136 663.033 913.136C663.033 913.136 657.033 934.136 643.033 942.136C615.344 957.958 577.533 911.636 569.533 894.636Z" fill="#EBEBEB" stroke="black" stroke-width="2" stroke-miterlimit="10"/>
</g>
<mask id="mask21_239_2013" style="mask-type:luminance" maskUnits="userSpaceOnUse" x="0" y="0" width="1188" height="1179">
<path d="M321.627 1110.55L61.2881 838.693C-22.9959 750.681 -19.9739 611.008 68.0371 526.724L554.057 61.2881C642.069 -22.9959 781.742 -19.9739 866.026 68.0371L1126.37 339.889C1210.65 427.901 1207.63 567.574 1119.62 651.858L633.596 1117.29C545.585 1201.58 405.911 1198.56 321.627 1110.55Z" fill="white"/>
</mask>
<g mask="url(#mask21_239_2013)">
<path d="M476.533 978.636C476.533 978.636 522.533 953.636 526.533 941.636C530.533 929.636 547.533 904.636 559.533 887.636C571.533 870.636 574.533 880.636 574.533 880.636C574.533 880.636 587.533 931.636 613.533 936.636C639.533 941.636 659.533 928.636 662.533 912.636C662.533 912.636 656.533 947.636 636.533 972.636C616.533 997.636 618.617 1011.92 606.575 1047.78C594.533 1083.64 572.533 1135.64 543.533 1147.64" fill="#8E2373"/>
<path d="M476.533 978.636C476.533 978.636 522.533 953.636 526.533 941.636C530.533 929.636 547.533 904.636 559.533 887.636C571.533 870.636 574.533 880.636 574.533 880.636C574.533 880.636 587.533 931.636 613.533 936.636C639.533 941.636 659.533 928.636 662.533 912.636C662.533 912.636 656.533 947.636 636.533 972.636C616.533 997.636 618.617 1011.92 606.575 1047.78C594.533 1083.64 572.533 1135.64 543.533 1147.64" stroke="black" stroke-width="3" stroke-miterlimit="10" stroke-linecap="round" stroke-linejoin="round"/>
</g>
<mask id="mask22_239_2013" style="mask-type:luminance" maskUnits="userSpaceOnUse" x="0" y="0" width="1188" height="1179">
<path d="M321.627 1110.55L61.2881 838.693C-22.9959 750.681 -19.9739 611.008 68.0371 526.724L554.057 61.2881C642.069 -22.9959 781.742 -19.9739 866.026 68.0371L1126.37 339.889C1210.65 427.901 1207.63 567.574 1119.62 651.858L633.596 1117.29C545.585 1201.58 405.911 1198.56 321.627 1110.55Z" fill="white"/>
</mask>
<g mask="url(#mask22_239_2013)">
<path d="M672.033 534.136C675.26 537.563 678.915 540.48 682.744 543.098C686.517 545.797 690.597 548.017 694.682 550.159C695.682 550.735 696.775 551.139 697.82 551.628L700.966 553.072C701.998 553.588 703.095 553.961 704.173 554.374L707.412 555.597C709.544 556.48 711.777 557.096 713.976 557.799L717.281 558.834C718.38 559.187 719.525 559.388 720.645 559.673L727.378 561.348L734.22 562.567L737.637 563.218L741.093 563.635C743.4 563.899 745.705 564.198 748.012 564.512C749.163 564.699 750.327 564.745 751.488 564.823L754.975 565.065L761.963 565.614C766.633 565.74 771.316 565.843 776.033 566.133C771.371 566.731 766.674 567.153 761.964 567.578C757.253 567.623 752.515 567.812 747.786 567.624C745.424 567.476 743.059 567.314 740.696 567.116L737.149 566.83L733.627 566.306L726.59 565.174L719.641 563.54C718.492 563.231 717.321 563.007 716.19 562.628L712.792 561.516C710.537 560.746 708.232 560.125 706.059 559.119L702.765 557.722C701.67 557.251 700.559 556.821 699.51 556.245C697.392 555.144 695.237 554.121 693.196 552.886C689.104 550.436 685.134 547.774 681.547 544.637C677.967 541.531 674.576 538.123 672.033 534.136Z" fill="black"/>
<path d="M660.033 558.136C666.519 564.893 673.932 570.638 681.708 575.718C689.488 580.807 697.764 585.074 706.301 588.645L712.764 591.176L719.359 593.332C721.536 594.117 723.796 594.625 726.032 595.209L729.39 596.07L731.068 596.501C731.628 596.641 732.203 596.72 732.769 596.833C737.32 597.643 741.827 598.69 746.441 599.087C748.737 599.345 751.027 599.67 753.326 599.873C755.63 599.99 757.927 600.224 760.236 600.23C769.458 600.547 778.718 599.998 787.869 598.633C792.456 598.022 797.004 597.126 801.531 596.141C806.051 595.116 810.535 593.927 814.997 592.64C823.884 589.952 832.64 586.76 841.159 582.982C849.691 579.235 858.043 575.02 866.033 570.136C858.53 575.763 850.365 580.481 841.997 584.758C837.793 586.865 833.517 588.835 829.175 590.66C824.829 592.476 820.401 594.098 815.935 595.616C798.046 601.564 779.098 604.82 760.107 604.224C757.734 604.201 755.37 603.948 753.002 603.809C750.643 603.585 748.298 603.238 745.946 602.958C741.226 602.5 736.596 601.451 731.953 600.519C731.375 600.392 730.789 600.298 730.218 600.144L728.506 599.669L725.083 598.718C722.804 598.075 720.504 597.506 718.288 596.659L711.59 594.304L705.069 591.499C696.451 587.603 688.225 582.867 680.598 577.325C673.031 571.73 665.868 565.49 660.033 558.136Z" fill="black"/>
<path d="M510.033 698.136C515.83 704.142 521.04 710.708 525.912 717.514C530.727 724.36 535.178 731.5 538.935 739.036C542.722 746.549 545.862 754.448 547.918 762.704C548.951 766.825 549.636 771.064 550.007 775.311C550.358 779.45 550.735 783.586 551.153 787.716C551.932 795.982 552.914 804.221 554.11 812.422C554.687 816.529 555.361 820.606 556.056 824.722C556.227 825.755 556.395 826.796 556.544 827.867C556.699 828.904 556.74 830.304 556.765 831.122C556.873 833.135 557.037 835.229 557.197 837.294C558.57 853.878 560.007 870.49 561.034 887.137C558.352 870.67 556.051 854.169 554.091 837.599C553.851 835.518 553.611 833.466 553.416 831.325C553.332 830.063 553.309 829.379 553.146 828.355C552.986 827.366 552.799 826.354 552.607 825.337C551.822 821.256 551.044 817.129 550.368 813C549.046 804.731 548.025 796.424 547.176 788.109C546.786 783.948 546.438 779.785 546.116 775.621C545.805 771.563 545.141 767.561 544.245 763.579C542.481 755.605 539.513 747.894 536.134 740.383C532.693 732.889 528.676 725.632 524.287 718.596C519.907 711.548 515.158 704.713 510.033 698.136Z" fill="black"/>
<path d="M448.033 724.136C454.42 739.208 462.046 753.665 470.563 767.518C474.943 774.365 479.349 781.2 484.332 787.605C486.714 790.89 489.323 793.99 491.872 797.139L492.83 798.318L493.842 799.45L495.871 801.708C497.236 803.2 498.545 804.748 499.956 806.195L504.217 810.51L508.535 814.854L512.913 819.226C514.348 820.706 515.723 822.246 517.11 823.771C519.935 826.778 522.487 830.026 525.141 833.179C527.653 836.449 530.227 839.673 532.515 843.105C537.25 849.85 541.53 856.912 545.251 864.252C547.055 867.951 548.832 871.659 550.341 875.483C551.881 879.289 553.259 883.168 554.273 887.138C552.856 883.297 551.139 879.588 549.329 875.937C548.439 874.104 547.468 872.311 546.522 870.51C545.563 868.715 544.521 866.963 543.526 865.191C539.444 858.153 534.865 851.422 529.988 844.937L528.16 842.504C527.548 841.695 526.886 840.924 526.252 840.133C524.971 838.56 523.726 836.959 522.43 835.4C519.745 832.359 517.169 829.226 514.321 826.335C512.912 824.878 511.57 823.357 510.143 821.918L505.807 817.655L501.444 813.332L497.055 808.947C485.736 796.885 476.078 783.379 467.894 769.113C463.789 761.982 460.123 754.614 456.746 747.133C453.44 739.618 450.379 731.989 448.033 724.136Z" fill="black"/>
<path d="M463.033 701.136C468.322 710.124 473.807 718.936 479.671 727.44C485.639 735.878 491.876 744.035 499.579 750.766C507.352 757.931 514.22 765.863 520.649 774.105C523.868 778.223 526.94 782.45 529.899 786.752C531.35 788.924 532.807 791.09 534.183 793.311C535.55 795.532 536.937 797.762 538.034 800.136C537.304 799.053 536.52 798.022 535.707 797.004C534.914 795.975 534.098 794.963 533.28 793.953C531.642 791.935 530.003 789.921 528.331 787.934C525.022 783.934 521.637 780.002 518.241 776.091C514.811 772.209 511.398 768.321 507.825 764.594C506.064 762.705 504.266 760.863 502.466 759.021C500.626 757.226 498.795 755.421 496.885 753.72C495.961 752.867 494.996 751.937 494.031 751C493.065 750.073 492.093 749.15 491.221 748.15C490.334 747.161 489.402 746.207 488.555 745.19L486.038 742.121C482.827 737.928 479.804 733.622 477.07 729.145C471.615 720.192 466.84 710.859 463.033 701.136Z" fill="black"/>
<path d="M453.033 1028.14C455.796 1022.54 459.301 1017.36 463.103 1012.43C466.885 1007.48 471.081 1002.85 475.553 998.504C477.761 996.301 480.131 994.265 482.475 992.21C483.688 991.227 484.903 990.248 486.132 989.288C486.748 988.81 487.351 988.317 487.977 987.851L489.894 986.506C494.918 982.814 500.385 979.723 506.032 977.135C501.252 981.146 496.401 984.875 491.825 988.958C489.486 990.929 487.275 993.049 484.979 995.058C482.775 997.175 480.493 999.203 478.339 1001.37C473.949 1005.62 469.673 1009.98 465.47 1014.45C461.279 1018.93 457.161 1023.48 453.033 1028.14Z" fill="black"/>
<path d="M616.033 1037.14C618.541 1041.51 620.566 1046.15 622.452 1050.83C624.273 1055.54 625.949 1060.32 627.279 1065.2C628.019 1067.63 628.576 1070.1 629.18 1072.56C629.705 1075.04 630.252 1077.51 630.702 1080.01L631.312 1083.76C631.528 1085.01 631.682 1086.27 631.823 1087.54L632.27 1091.32C632.43 1092.58 632.48 1093.85 632.59 1095.11C633.257 1105.32 632.823 1115.32 632.593 1125.35C632.3 1135.39 631.865 1145.43 631.032 1155.46C630.199 1145.43 629.764 1135.39 629.471 1125.35C629.285 1120.34 629.249 1115.32 629.138 1110.3C629.107 1109.04 629.112 1107.79 629.101 1106.54L628.998 1102.82L628.882 1099.11L628.602 1095.4C628.51 1094.17 628.477 1092.93 628.336 1091.7L627.945 1088C627.738 1085.53 627.272 1083.08 626.974 1080.62C626.625 1078.16 626.179 1075.72 625.756 1073.27L625.02 1069.61C624.801 1068.39 624.537 1067.17 624.261 1065.96C623.21 1061.09 621.968 1056.26 620.6 1051.46C619.248 1046.65 617.737 1041.87 616.033 1037.14Z" fill="black"/>
<path d="M1024.03 689.136C1022.68 698.52 1020.85 707.802 1018.82 717.039C1017.84 721.666 1016.7 726.254 1015.61 730.855C1014.47 735.444 1013.26 740.014 1012.04 744.586C1010.75 749.137 1009.46 753.691 1008.07 758.217C1006.63 762.728 1005.24 767.255 1003.61 771.711C1002.03 776.182 1000.32 780.612 998.403 784.968C997.409 787.131 996.422 789.298 995.246 791.381C994.083 793.441 992.866 795.587 991.035 797.136C992.526 795.292 993.38 793.081 994.243 790.907C995.099 788.727 995.855 786.501 996.569 784.263C998.029 779.798 999.323 775.273 1000.64 770.756C1001.9 766.224 1003.22 761.703 1004.44 757.153C1005.71 752.619 1006.96 748.075 1008.19 743.525L1011.96 729.895C1013.26 725.361 1014.47 720.804 1015.81 716.276C1018.4 707.2 1021.07 698.14 1024.03 689.136Z" fill="black"/>
<path d="M626.745 1002.64C624.324 1008.86 621.882 1015.07 619.595 1021.32C617.277 1027.56 615.073 1033.84 613.147 1040.16L612.442 1042.54L611.812 1044.92C611.355 1046.51 611.036 1048.1 610.667 1049.68C610.473 1050.48 610.398 1051.27 610.257 1052.06C610.123 1052.85 609.99 1053.64 609.982 1054.4L609.84 1056.79C609.782 1057.69 609.74 1058.6 609.658 1059.49L609.215 1062.06C609.134 1062.49 609.068 1062.92 608.974 1063.35L608.655 1064.59C608.232 1066.25 607.822 1067.92 607.27 1069.53C606.754 1071.15 606.256 1072.78 605.633 1074.35C605.02 1075.93 604.496 1077.55 603.805 1079.09C601.23 1085.35 598.115 1091.35 594.773 1097.2L592.165 1101.53C591.271 1102.96 590.315 1104.35 589.394 1105.76C587.603 1108.62 585.499 1111.26 583.513 1113.98C575.272 1124.61 565.526 1134.2 554.273 1141.44C564.526 1132.86 573.365 1122.9 581.001 1112.12L583.766 1108.01C584.718 1106.66 585.59 1105.26 586.454 1103.85C587.317 1102.45 588.215 1101.06 589.05 1099.64L591.482 1095.33C594.65 1089.55 597.671 1083.67 600.113 1077.56C602.62 1071.51 604.84 1065.24 605.919 1058.97L606.138 1056.69L606.361 1054.09C606.407 1053.18 606.574 1052.33 606.741 1051.48C606.915 1050.63 607.031 1049.75 607.255 1048.93C608.06 1045.61 609.047 1042.36 610.194 1039.2C612.414 1032.84 615.037 1026.67 617.794 1020.58C620.592 1014.5 623.524 1008.49 626.745 1002.64Z" fill="black"/>
<path d="M575.033 901.136C577.705 907.249 580.943 912.98 584.647 918.323C588.381 923.64 592.667 928.512 597.575 932.631C600.032 934.684 602.634 936.552 605.367 938.221C608.112 939.873 611.007 941.262 613.989 942.494C619.993 944.865 626.407 946.269 633.034 947.137C626.403 947.938 619.518 947.39 612.966 945.444L610.525 944.655C609.704 944.404 608.937 944.02 608.139 943.707C606.538 943.087 605.027 942.27 603.486 941.51C600.473 939.857 597.642 937.884 595.001 935.693C589.732 931.281 585.407 925.855 582.021 919.99C578.668 914.109 576.125 907.751 575.033 901.136Z" fill="black"/>
</g>
<mask id="mask23_239_2013" style="mask-type:luminance" maskUnits="userSpaceOnUse" x="0" y="0" width="1188" height="1179">
<path d="M321.627 1110.55L61.2881 838.693C-22.9959 750.681 -19.9739 611.008 68.0371 526.724L554.057 61.2881C642.069 -22.9959 781.742 -19.9739 866.026 68.0371L1126.37 339.889C1210.65 427.901 1207.63 567.574 1119.62 651.858L633.596 1117.29C545.585 1201.58 405.911 1198.56 321.627 1110.55Z" fill="white"/>
</mask>
<g mask="url(#mask23_239_2013)">
<path opacity="0.67" d="M685.033 491.136C685.033 491.136 688.548 506.839 688.29 510.988C688.033 515.136 725.033 537.136 756.033 536.136C787.033 535.136 814.172 497.621 814.172 497.621L815.063 493.166C815.063 493.166 785.587 529.634 757.533 530.636C729.533 531.636 709.074 510.809 709.074 510.809L685.033 491.136Z" fill="#BC9D88"/>
</g>
<mask id="mask24_239_2013" style="mask-type:luminance" maskUnits="userSpaceOnUse" x="0" y="0" width="1188" height="1179">
<path d="M321.627 1110.55L61.2881 838.693C-22.9959 750.681 -19.9739 611.008 68.0371 526.724L554.057 61.2881C642.069 -22.9959 781.742 -19.9739 866.026 68.0371L1126.37 339.889C1210.65 427.901 1207.63 567.574 1119.62 651.858L633.596 1117.29C545.585 1201.58 405.911 1198.56 321.627 1110.55Z" fill="white"/>
</mask>
<g mask="url(#mask24_239_2013)">
<path opacity="0.67" d="M574.533 880.636C574.533 880.636 593.033 930.136 614.033 932.136C635.033 934.136 662.533 912.636 662.533 912.636C662.533 912.636 657.033 943.136 613.533 936.636C613.533 936.636 599.738 935.253 587.385 912.694C575.032 890.135 574.533 880.636 574.533 880.636Z" fill="#BC9D88"/>
</g>
<mask id="mask25_239_2013" style="mask-type:luminance" maskUnits="userSpaceOnUse" x="0" y="0" width="1188" height="1179">
<path d="M321.627 1110.55L61.2881 838.693C-22.9959 750.681 -19.9739 611.008 68.0371 526.724L554.057 61.2881C642.069 -22.9959 781.742 -19.9739 866.026 68.0371L1126.37 339.889C1210.65 427.901 1207.63 567.574 1119.62 651.858L633.596 1117.29C545.585 1201.58 405.911 1198.56 321.627 1110.55Z" fill="white"/>
</mask>
<g mask="url(#mask25_239_2013)">
<path d="M858.033 836.136V841.136H927.033L930.033 837.136L858.033 836.136Z" fill="#E2E2E2"/>
</g>
<mask id="mask26_239_2013" style="mask-type:luminance" maskUnits="userSpaceOnUse" x="0" y="0" width="1188" height="1179">
<path d="M321.627 1110.55L61.2881 838.693C-22.9959 750.681 -19.9739 611.008 68.0371 526.724L554.057 61.2881C642.069 -22.9959 781.742 -19.9739 866.026 68.0371L1126.37 339.889C1210.65 427.901 1207.63 567.574 1119.62 651.858L633.596 1117.29C545.585 1201.58 405.911 1198.56 321.627 1110.55Z" fill="white"/>
</mask>
<g mask="url(#mask26_239_2013)">
<path d="M862.033 820.136V823.136H952.116L956.033 820.736L862.033 820.136Z" fill="#E2E2E2"/>
</g>
<path d="M663.538 343.136C663.538 343.136 648.538 345.136 645.538 343.136C642.538 341.136 628.033 324.136 628.033 324.136V344.025L641.538 357.136H663.538V343.136Z" fill="#8E2373" fill-opacity="0.2"/>
<path d="M734.869 345.628L756.91 345.415C760.469 345.381 763.302 348.389 763.052 351.94L763.046 352.027C762.823 355.208 760.186 357.68 756.998 357.698L734.963 357.825C731.413 357.845 728.596 354.841 728.845 351.3C729.068 348.127 731.69 345.659 734.869 345.628Z" fill="#8E2373" fill-opacity="0.2"/>
<path d="M833.033 326.136C833.033 326.136 848.033 328.136 851.033 326.136C854.033 324.136 868.538 307.136 868.538 307.136V327.025L855.033 340.136H833.033V326.136Z" fill="#8E2373" fill-opacity="0.2"/>
<path d="M857.033 351.31C857.033 378.675 834.2 400.859 806.033 400.859C777.866 400.859 755.033 378.675 755.033 351.31C755.033 323.945 777.866 301.761 806.033 301.761C834.2 301.761 857.033 323.944 857.033 351.31Z" fill="#8E2373" fill-opacity="0.2"/>
<path d="M740.033 351.31C740.033 378.675 717.2 400.859 689.033 400.859C660.866 400.859 638.033 378.675 638.033 351.31C638.033 323.945 660.866 301.761 689.033 301.761C717.2 301.76 740.033 323.944 740.033 351.31Z" fill="#8E2373" fill-opacity="0.2"/>
<path d="M736.033 351.31C736.033 376.529 714.99 396.973 689.033 396.973C663.076 396.973 642.033 376.529 642.033 351.31C642.033 326.091 663.076 305.647 689.033 305.647C714.99 305.647 736.033 326.09 736.033 351.31Z" fill="#251B3F"/>
<path d="M853.033 351.31C853.033 376.529 831.99 396.973 806.033 396.973C780.076 396.973 759.033 376.529 759.033 351.31C759.033 326.091 780.076 305.647 806.033 305.647C831.99 305.647 853.033 326.09 853.033 351.31Z" fill="#251B3F"/>
<path d="M555.899 892.814C552.785 898.771 549.403 904.529 545.964 910.239L535.643 927.279C534.817 928.693 533.962 930.115 533.235 931.529C532.821 932.245 532.526 932.918 532.216 933.591C531.9 934.288 531.631 935.114 531.307 935.881C530.687 937.441 530.035 939.03 529.281 940.589C528.921 941.373 528.504 942.141 528.094 942.906C527.635 943.65 527.212 944.411 526.702 945.124C524.763 948.033 522.325 950.6 519.563 952.647C516.787 954.679 513.769 956.29 510.605 957.429C513.361 955.5 516 953.491 518.278 951.162C520.599 948.883 522.494 946.271 524.04 943.495C525.558 940.691 526.726 937.723 527.753 934.575C528.024 933.784 528.265 933.019 528.602 932.182C528.957 931.325 529.321 930.465 529.722 929.723C530.503 928.161 531.357 926.715 532.202 925.243C535.658 919.45 539.437 913.93 543.374 908.519C547.315 903.116 551.423 897.831 555.899 892.814Z" fill="black"/>
<path d="M711.324 837.055C706.922 839.036 702.417 840.611 697.888 842.094C693.353 843.552 688.779 844.857 684.172 846.033C679.565 847.21 674.924 848.25 670.244 849.14C665.558 850.006 660.848 850.775 656.033 851.136C660.434 849.151 664.938 847.572 669.468 846.092C674.003 844.635 678.577 843.329 683.185 842.158C687.793 840.987 692.434 839.946 697.114 839.057C701.8 838.193 706.51 837.421 711.324 837.055Z" fill="black"/>
<path d="M747.835 423.275C747.835 423.275 745.916 430.856 751.034 434.422" stroke="black" stroke-width="4" stroke-miterlimit="10" stroke-linecap="round" stroke-linejoin="round"/>
</svg>
